<svg xmlns="http://www.w3.org/2000/svg" width="34.403" height="38.303" viewBox="0 0 34.403 38.303">
  <g id="box" transform="translate(0.5 0.544)">
    <path id="パス_42" data-name="パス 42" d="M36.4,27.979V13.133a3.711,3.711,0,0,0-1.856-3.21L21.557,2.5a3.711,3.711,0,0,0-3.711,0L4.856,9.922A3.711,3.711,0,0,0,3,13.133V27.979a3.711,3.711,0,0,0,1.856,3.21l12.99,7.423a3.711,3.711,0,0,0,3.711,0l12.99-7.423A3.711,3.711,0,0,0,36.4,27.979Z" transform="translate(-3 -2.002)" fill="none" stroke="#fff" stroke-linecap="round" stroke-linejoin="round" stroke-width="1"/>
    <path id="パス_43" data-name="パス 43" d="M3.27,6.96l16.2,9.371,16.2-9.371" transform="translate(-2.769 2.241)" fill="none" stroke="#fff" stroke-linecap="round" stroke-linejoin="round" stroke-width="1"/>
    <line id="線_3" data-name="線 3" y1="18.706" transform="translate(16.702 18.554)" fill="none" stroke="#fff" stroke-linecap="round" stroke-linejoin="round" stroke-width="1"/>
  </g>
</svg>
